<svg id="Layer_1" enable-background="new 0 0 512.009 512.009" height="512" viewBox="0 0 512.009 512.009" width="512" xmlns="http://www.w3.org/2000/svg"><g><path d="m185.767 288.552c-.31-1.19-.475-2.419-.477-3.665-2.883-13.177-4.02-27.003-2.734-41.14 5.43-59.681 48.642-106.831 103.881-119.999-6.205-1.466-12.583-2.523-19.116-3.118-74.802-6.806-140.958 48.315-147.764 123.117-1.388 15.259.042 30.157 3.449 44.266 20.087-1.545 40.414-1.104 62.93 1.803-.065-.422-.123-.844-.169-1.264z" fill="#cee1f2"/><path d="m371.706 511.991c-55.138 0-96.507-8.596-134.757-16.543-18.973-3.941-36.893-7.665-55.629-10.203-10.945-1.483-18.616-11.559-17.133-22.505 1.483-10.945 11.558-18.604 22.504-17.134 20.127 2.728 38.716 6.59 58.395 10.679 61.701 12.819 125.501 26.075 243.186 3.714 10.852-2.063 21.32 5.063 23.382 15.915s-5.063 21.32-15.915 23.382c-48.665 9.246-89.112 12.695-124.033 12.695zm-37.838-109.641c1.291-10.97-6.556-20.909-17.526-22.2-25.949-3.053-49.176-7.971-71.638-12.727-33.165-7.021-64.491-13.654-102.301-14.406-38.537-.775-80.362 5.366-127.824 18.746-10.631 2.998-16.82 14.046-13.823 24.677 2.997 10.632 14.046 16.815 24.676 13.823 44.224-12.468 81.138-17.94 116.176-17.254 34.024.677 63.551 6.928 94.811 13.547 23.343 4.942 47.481 10.053 75.25 13.32.794.093 1.582.139 2.362.139 10 0 18.64-7.49 19.837-17.665zm41.627-47.686c20.006-24.495 32.061-53.7 34.859-84.457 7.795-85.665-55.557-161.699-141.222-169.495-85.67-7.81-161.7 55.559-169.494 141.223-1.513 16.635-.192 33.717 3.926 50.772 2.304 9.54 11.175 16.003 20.976 15.247 38.101-2.934 76.095 1.946 127.039 16.309 10.632 2.998 21.679-3.192 24.676-13.823s-3.191-21.68-13.823-24.677c-47.889-13.501-85.748-19.322-122.779-18.573-.763-7.312-.824-14.544-.179-21.63 5.795-63.699 62.34-110.8 126.034-105.012 30.857 2.808 58.774 17.464 78.608 41.269s29.211 53.908 26.403 84.766c-2.073 22.779-11.065 44.488-26.004 62.779-6.987 8.555-5.716 21.154 2.839 28.142 3.714 3.034 8.19 4.511 12.64 4.511 5.797-.001 11.548-2.51 15.501-7.351zm10.343-272.435 10.442-17.058c5.767-9.421 2.805-21.732-6.615-27.5-9.421-5.767-21.732-2.805-27.5 6.615l-10.442 17.058c-5.767 9.421-2.805 21.732 6.615 27.5 3.259 1.995 6.863 2.945 10.423 2.945 6.732 0 13.305-3.399 17.077-9.56zm-227.844 4.043c9.565-5.523 12.842-17.755 7.318-27.32l-10.001-17.319c-5.524-9.567-17.757-12.845-27.321-7.318-9.565 5.523-12.842 17.755-7.318 27.32l10.001 17.319c3.705 6.416 10.427 10.002 17.338 10.002 3.394 0 6.833-.864 9.983-2.684zm-72.899 73.563c5.42-9.625 2.011-21.82-7.613-27.24l-17.427-9.813c-9.625-5.42-21.821-2.011-27.24 7.613-5.42 9.625-2.011 21.82 7.613 27.24l17.427 9.813c3.103 1.747 6.472 2.577 9.795 2.577 6.987 0 13.772-3.668 17.445-10.19zm369.181 8.45 17.468-9.739c9.647-5.379 13.108-17.561 7.729-27.208-5.378-9.647-17.56-13.106-27.208-7.729l-17.468 9.739c-9.647 5.379-13.108 17.561-7.729 27.208 3.66 6.564 10.469 10.265 17.486 10.265 3.297-.001 6.639-.817 9.722-2.536zm-181.271-128.268v-19.999c0-11.046-8.954-20-20-20s-20 8.954-20 20v19.999c0 11.046 8.954 20 20 20s20-8.954 20-20zm239 215.996c0-11.046-8.954-20-20-20h-19.999c-11.046 0-20 8.954-20 20s8.954 20 20 20h19.999c11.046 0 20-8.954 20-20zm-452.001 0c0-11.046-8.954-20-20-20h-19.999c-11.046 0-20 8.954-20 20s8.954 20 20 20h19.999c11.046 0 20-8.954 20-20z" fill="#0023c4"/><path d="m19.995 499.652c-8.73 0-16.753-5.761-19.239-14.578-2.998-10.631 3.191-21.679 13.822-24.677 24.007-6.769 46.132-11.531 67.638-14.56 10.938-1.535 21.054 6.078 22.594 17.016s-6.078 21.054-17.016 22.594c-19.706 2.775-40.104 7.175-62.362 13.45-1.814.511-3.641.755-5.437.755zm379.001-76.664c27.265-1.354 58.909-5.505 96.742-12.692 10.852-2.062 17.977-12.529 15.916-23.382-2.062-10.852-12.53-17.973-23.381-15.915-36.002 6.84-65.854 10.777-91.258 12.038-11.032.548-19.532 9.935-18.984 20.967.531 10.694 9.369 19.009 19.959 19.009.333 0 .669-.008 1.006-.025z" fill="#ff5cf3"/></g></svg>